<svg width="28" height="28" viewBox="0 0 64 64" fill="none" xmlns="http://www.w3.org/2000/svg">
<path d="M35.1203 10.6668L48.0003 23.5468V53.3335H16.0003V10.6668H35.1203ZM37.3337 5.3335H16.0003C13.067 5.3335 10.667 7.7335 10.667 10.6668V53.3335C10.667 56.2668 13.067 58.6668 16.0003 58.6668H48.0003C50.9337 58.6668 53.3337 56.2668 53.3337 53.3335V21.3335L37.3337 5.3335ZM32.0003 37.3335C34.9337 37.3335 37.3337 34.9335 37.3337 32.0002C37.3337 29.0668 34.9337 26.6668 32.0003 26.6668C29.067 26.6668 26.667 29.0668 26.667 32.0002C26.667 34.9335 29.067 37.3335 32.0003 37.3335ZM42.667 46.4802C42.667 44.3202 41.387 42.4002 39.4137 41.5468C37.147 40.5602 34.6403 40.0002 32.0003 40.0002C29.3603 40.0002 26.8537 40.5602 24.587 41.5468C22.6137 42.4002 21.3337 44.3202 21.3337 46.4802V48.0002H42.667V46.4802Z" fill="black"/>
</svg>
