<svg width="15" height="15" viewBox="0 0 15 15" fill="none" xmlns="http://www.w3.org/2000/svg">
<path d="M8.38063 3.5945C8.66845 3.28125 8.61069 2.8238 8.25154 2.57274C7.89251 2.32168 7.36818 2.37209 7.08046 2.68534L8.38063 3.5945ZM1.17863 10.272L1.80964 10.7466C1.81615 10.74 1.82252 10.7333 1.82875 10.7266L1.17863 10.272ZM0.988675 10.6771L0.157144 10.6297L0.156411 10.6435L0.988675 10.6771ZM0.833153 13.6069L0.000889487 13.5733C-0.00102121 13.6093 0.000145204 13.6455 0.00439984 13.6814L0.833153 13.6069ZM1.70741 14.2727L1.73465 14.9992C1.79021 14.9976 1.84544 14.9912 1.89954 14.9799L1.70741 14.2727ZM5.04002 13.5836L5.2322 14.2909L5.24508 14.2881L5.04002 13.5836ZM5.4677 13.3472L6.11045 13.8098L6.11767 13.8019L5.4677 13.3472ZM12.8273 6.50217C13.1152 6.18894 13.0575 5.7315 12.6986 5.48035C12.3397 5.2292 11.8152 5.2795 11.5274 5.59271L12.8273 6.50217ZM7.08391 2.68515C6.79608 2.99831 6.85362 3.45579 7.21266 3.70696C7.57158 3.95811 8.09591 3.90785 8.38385 3.5947L7.08391 2.68515ZM9.49794 1.22098L10.1479 1.67576C10.1588 1.66385 10.1694 1.65163 10.1795 1.63914L9.49794 1.22098ZM11.3075 0.910847L11.8405 0.352183C11.814 0.332916 11.7861 0.315112 11.7571 0.29886L11.3075 0.910847ZM13.7926 2.71543L14.3822 2.20193C14.3641 2.18612 14.3452 2.17106 14.3256 2.15676L13.7926 2.71543ZM13.7826 4.30291L13.1994 3.78379C13.1758 3.80399 13.1536 3.82539 13.1328 3.84788L13.7826 4.30291ZM11.5274 5.59271C11.2393 5.90575 11.297 6.36291 11.6558 6.61421C12.0146 6.86551 12.5393 6.81521 12.8273 6.50217L11.5274 5.59271ZM8.55781 3.03221C8.4896 2.6352 8.06547 2.36159 7.61046 2.42108C7.15534 2.48057 6.84174 2.85063 6.90995 3.24764L8.55781 3.03221ZM12.2896 6.76763C12.7455 6.71364 13.0648 6.3473 13.003 5.94956C12.941 5.55176 12.5212 5.2731 12.0652 5.32715L12.2896 6.76763ZM7.08046 2.68534L0.528519 9.81739L1.82875 10.7266L8.38063 3.5945L7.08046 2.68534ZM0.547626 9.79732C0.317276 10.0304 0.180106 10.3226 0.157144 10.6297L1.82006 10.7244C1.81945 10.7326 1.8158 10.7404 1.80964 10.7466L0.547626 9.79732ZM0.156411 10.6435L0.000889487 13.5733L1.66542 13.6405L1.82094 10.7108L0.156411 10.6435ZM0.00439984 13.6814C0.0951246 14.4489 0.850794 15.0244 1.73465 14.9992L1.68017 13.5462C1.67661 13.5463 1.67487 13.5458 1.67374 13.5455C1.67215 13.545 1.67005 13.544 1.66791 13.5424C1.66575 13.5407 1.66436 13.5391 1.66357 13.5378C1.66301 13.5368 1.66227 13.5354 1.66191 13.5323L0.00439984 13.6814ZM1.89954 14.9799L5.2322 14.2909L4.84784 12.8764L1.51527 13.5654L1.89954 14.9799ZM5.24508 14.2881C5.58446 14.2129 5.88761 14.0455 6.11045 13.8098L4.82495 12.8846C4.82762 12.8819 4.83106 12.8799 4.83495 12.8791L5.24508 14.2881ZM6.11767 13.8019L12.8273 6.50217L11.5274 5.59271L4.81773 12.8924L6.11767 13.8019ZM8.38385 3.5947L10.1479 1.67576L8.84797 0.766209L7.08391 2.68515L8.38385 3.5947ZM10.1795 1.63914C10.3334 1.4481 10.6326 1.39682 10.858 1.52284L11.7571 0.29886C10.7803 -0.247224 9.48383 -0.0250343 8.81642 0.802824L10.1795 1.63914ZM10.7746 1.46951L13.2596 3.27409L14.3256 2.15676L11.8405 0.352183L10.7746 1.46951ZM13.2029 3.22894C13.2872 3.30268 13.3343 3.40279 13.3337 3.507L15 3.51498C15.0031 3.02293 14.7807 2.55019 14.3822 2.20193L13.2029 3.22894ZM13.3337 3.507C13.3331 3.6112 13.2847 3.71085 13.1994 3.78379L14.3658 4.82205C14.7686 4.47761 14.9969 4.00704 15 3.51498L13.3337 3.507ZM13.1328 3.84788L11.5274 5.59271L12.8273 6.50217L14.4323 4.75795L13.1328 3.84788ZM6.90995 3.24764C7.29797 5.50705 9.69468 7.07524 12.2896 6.76763L12.0652 5.32715C10.3734 5.5277 8.81087 4.50526 8.55781 3.03221L6.90995 3.24764Z" fill="#5D5D5D"/>
</svg>
