<svg width="20" height="20" viewBox="0 0 20 20" fill="none" xmlns="http://www.w3.org/2000/svg">
<path d="M8.3335 7.49998C8.3335 7.01084 8.51594 6.69801 8.75546 6.49478C9.01309 6.27618 9.3863 6.14581 9.79183 6.14581C10.1974 6.14581 10.5706 6.27618 10.8282 6.49478C11.0677 6.69801 11.2502 7.01084 11.2502 7.49998C11.2502 7.86428 11.1643 8.06654 11.0646 8.21612C10.9483 8.39062 10.7952 8.52824 10.5363 8.76096L10.4844 8.80765C10.218 9.04735 9.86764 9.37139 9.60047 9.84339C9.32514 10.3298 9.16683 10.9176 9.16683 11.6666C9.16683 12.1269 9.53993 12.5 10.0002 12.5C10.4604 12.5 10.8335 12.1269 10.8335 11.6666C10.8335 11.1657 10.9356 10.8681 11.0509 10.6644C11.1744 10.4463 11.3448 10.2755 11.5993 10.0465C11.6222 10.0259 11.6464 10.0043 11.6715 9.98188C11.8993 9.77889 12.2112 9.50085 12.4514 9.14062C12.7423 8.70425 12.9168 8.17734 12.9168 7.49998C12.9168 6.53079 12.5264 5.74987 11.9065 5.22393C11.3048 4.71336 10.5321 4.47915 9.79183 4.47915C9.05153 4.47915 8.2789 4.71336 7.67716 5.22393C7.0573 5.74987 6.66683 6.53079 6.66683 7.49998C6.66683 7.96022 7.03993 8.33331 7.50016 8.33331C7.9604 8.33331 8.3335 7.96022 8.3335 7.49998Z" fill="#030723"/>
<path d="M10.6251 15.5597C10.9347 15.2192 10.9096 14.6921 10.5691 14.3825C10.2285 14.0729 9.70149 14.098 9.39189 14.4386L9.38356 14.4477C9.07396 14.7883 9.09905 15.3153 9.43959 15.6249C9.78013 15.9345 10.3072 15.9094 10.6168 15.5689L10.6251 15.5597Z" fill="#030723"/>
<path fill-rule="evenodd" clip-rule="evenodd" d="M10.0002 0.833313C4.93743 0.833313 0.833496 4.93724 0.833496 9.99998C0.833496 15.0627 4.93743 19.1666 10.0002 19.1666C15.0629 19.1666 19.1668 15.0627 19.1668 9.99998C19.1668 4.93724 15.0629 0.833313 10.0002 0.833313ZM2.50016 9.99998C2.50016 5.85772 5.8579 2.49998 10.0002 2.49998C14.1424 2.49998 17.5002 5.85772 17.5002 9.99998C17.5002 14.1422 14.1424 17.5 10.0002 17.5C5.8579 17.5 2.50016 14.1422 2.50016 9.99998Z" fill="#030723"/>
</svg>
