<svg width="20" height="20" viewBox="0 0 20 20" fill="none" xmlns="http://www.w3.org/2000/svg">
<path d="M5.8335 1.66669C5.17045 1.66669 4.53457 1.93008 4.06573 2.39892C3.59689 2.86776 3.3335 3.50365 3.3335 4.16669V15.8334C3.3335 16.4964 3.59689 17.1323 4.06573 17.6011C4.53457 18.07 5.17045 18.3334 5.8335 18.3334H14.1668C14.8299 18.3334 15.4658 18.07 15.9346 17.6011C16.4034 17.1323 16.6668 16.4964 16.6668 15.8334V15C16.6668 14.5398 16.2937 14.1667 15.8335 14.1667C15.3733 14.1667 15.0002 14.5398 15.0002 15V15.8334C15.0002 16.0544 14.9124 16.2663 14.7561 16.4226C14.5998 16.5789 14.3878 16.6667 14.1668 16.6667H5.8335C5.61248 16.6667 5.40052 16.5789 5.24424 16.4226C5.08796 16.2663 5.00016 16.0544 5.00016 15.8334V4.16669C5.00016 3.94567 5.08796 3.73371 5.24424 3.57743C5.40052 3.42115 5.61248 3.33335 5.8335 3.33335H14.1668C14.3878 3.33335 14.5998 3.42115 14.7561 3.57743C14.9124 3.73371 15.0002 3.94567 15.0002 4.16669V5.00002C15.0002 5.46026 15.3733 5.83335 15.8335 5.83335C16.2937 5.83335 16.6668 5.46026 16.6668 5.00002V4.16669C16.6668 3.50365 16.4034 2.86776 15.9346 2.39892C15.4658 1.93008 14.8299 1.66669 14.1668 1.66669H5.8335Z" fill="#FF0A00"/>
<path d="M13.9228 6.91076C13.5973 6.58533 13.0697 6.58533 12.7442 6.91076C12.4188 7.2362 12.4188 7.76384 12.7442 8.08928L13.8217 9.16669H10.0002C9.53993 9.16669 9.16683 9.53978 9.16683 10C9.16683 10.4603 9.53993 10.8334 10.0002 10.8334H13.8217L12.7442 11.9108C12.4188 12.2362 12.4188 12.7638 12.7442 13.0893C13.0697 13.4147 13.5973 13.4147 13.9228 13.0893L16.4228 10.5893C16.7482 10.2638 16.7482 9.7362 16.4228 9.41076L13.9228 6.91076Z" fill="#FF0A00"/>
</svg>
