<svg width="20" height="20" viewBox="0 0 20 20" fill="none" xmlns="http://www.w3.org/2000/svg">
<g clip-path="url(#clip0_33_248)">
<path fill-rule="evenodd" clip-rule="evenodd" d="M10.0002 6.66665C9.11611 6.66665 8.26826 7.01783 7.64314 7.64296C7.01802 8.26808 6.66683 9.11592 6.66683 9.99998C6.66683 10.884 7.01802 11.7319 7.64314 12.357C8.26826 12.9821 9.11611 13.3333 10.0002 13.3333C10.8842 13.3333 11.7321 12.9821 12.3572 12.357C12.9823 11.7319 13.3335 10.884 13.3335 9.99998C13.3335 9.11592 12.9823 8.26808 12.3572 7.64296C11.7321 7.01783 10.8842 6.66665 10.0002 6.66665ZM8.82165 8.82147C9.13421 8.50891 9.55813 8.33331 10.0002 8.33331C10.4422 8.33331 10.8661 8.50891 11.1787 8.82147C11.4912 9.13403 11.6668 9.55795 11.6668 9.99998C11.6668 10.442 11.4912 10.8659 11.1787 11.1785C10.8661 11.4911 10.4422 11.6666 10.0002 11.6666C9.55813 11.6666 9.13421 11.4911 8.82165 11.1785C8.50909 10.8659 8.3335 10.442 8.3335 9.99998C8.3335 9.55795 8.50909 9.13403 8.82165 8.82147Z" fill="#030723"/>
<path fill-rule="evenodd" clip-rule="evenodd" d="M9.151 0.833313C8.77246 0.833313 8.44147 1.08845 8.34511 1.45452L7.92281 3.05885L6.58112 3.62445L5.55407 2.71071C5.22431 2.41734 4.723 2.43196 4.41091 2.74406L2.74424 4.41072C2.44232 4.71264 2.41745 5.19392 2.68663 5.52535L3.58674 6.63361L3.03478 7.99154L1.47737 8.35513C1.10026 8.44317 0.833496 8.77939 0.833496 9.16665V10.8333C0.833496 11.2091 1.08499 11.5384 1.44751 11.6373L3.05724 12.0764L3.62436 13.4217L2.71154 14.4453C2.41753 14.775 2.43188 15.2769 2.74424 15.5892L4.41091 17.2559C4.71323 17.5582 5.19531 17.5827 5.5267 17.3126L6.63457 16.4094L7.95912 16.9543L8.35886 18.5373C8.4523 18.9074 8.78517 19.1666 9.16683 19.1666H10.8335C11.215 19.1666 11.5478 18.9076 11.6414 18.5377L12.0421 16.954L13.411 16.3871C13.5488 16.5026 13.7067 16.6382 13.864 16.7751C14.0202 16.9111 14.1654 17.0393 14.2716 17.1336C14.3247 17.1807 14.3679 17.2192 14.3978 17.2459L14.443 17.2864C14.7726 17.582 15.2764 17.5689 15.5894 17.2559L17.2561 15.5892C17.5628 15.2825 17.5829 14.7918 17.3024 14.461L16.3947 13.3905L16.9564 12.0338L18.5431 11.6215C18.9104 11.5261 19.1668 11.1945 19.1668 10.815V9.16665C19.1668 8.78555 18.9083 8.453 18.539 8.35904L16.9621 7.95785L16.4018 6.60443L17.3033 5.53794C17.5829 5.20706 17.5624 4.71707 17.2561 4.41072L15.5894 2.74406C15.2818 2.43646 14.7894 2.41721 14.4587 2.69985L13.4001 3.60471L11.999 3.02864L11.5853 1.45479C11.489 1.08859 11.158 0.833313 10.7793 0.833313H9.151ZM15.5348 14.9535L14.9647 15.5236L14.9584 15.5182C14.6507 15.2502 14.2542 14.9111 14.0306 14.7512C13.7966 14.5839 13.4929 14.5492 13.2271 14.6592L11.0179 15.5742C10.7748 15.6749 10.5935 15.8846 10.529 16.1397L10.1848 17.5H9.81589L9.4723 16.1393C9.40766 15.8833 9.22553 15.6731 8.98135 15.5726L6.80969 14.6793C6.5269 14.563 6.20313 14.6109 5.96612 14.8041L5.05711 15.5451L4.47926 14.9672L5.21878 14.1379C5.43287 13.8979 5.48967 13.556 5.36472 13.2596L4.43556 11.0554C4.33614 10.8196 4.13388 10.6425 3.88698 10.5752L2.50016 10.1969V9.82784L3.83378 9.51649C4.09724 9.45498 4.31445 9.26941 4.41632 9.01877L5.31632 6.80461C5.43079 6.523 5.38284 6.2014 5.19119 5.96544L4.45409 5.05789L5.03356 4.47842L5.86625 5.21924C6.10632 5.43282 6.44778 5.48935 6.74387 5.36454L8.94803 4.43537C9.18627 4.33494 9.3644 4.12963 9.43021 3.87961L9.79336 2.49998H10.1367L10.4925 3.85351C10.559 4.10615 10.74 4.31304 10.9816 4.41238L13.2374 5.33988C13.5266 5.45879 13.8581 5.40578 14.0958 5.20261L14.9558 4.46748L15.5357 5.04732L14.8012 5.91619C14.6 6.15429 14.5484 6.48482 14.6677 6.77288L15.5819 8.98122C15.6824 9.22408 15.8916 9.40528 16.1464 9.47009L17.5002 9.81451V10.1705L16.1356 10.5251C15.8826 10.5908 15.6752 10.7714 15.5752 11.0129L14.6602 13.2229C14.5408 13.5114 14.5926 13.8425 14.7946 14.0806L15.5348 14.9535Z" fill="#030723"/>
</g>
<defs>
<clipPath id="clip0_33_248">
<rect width="20" height="20" fill="white"/>
</clipPath>
</defs>
</svg>
