<svg width="20" height="20" viewBox="0 0 20 20" fill="none" xmlns="http://www.w3.org/2000/svg">
<path d="M17.2894 8.71741L17.2855 8.70178L15.0941 3.13342C14.9964 2.81897 14.7054 2.60217 14.3753 2.60217H5.4925C5.16047 2.60217 4.86554 2.82288 4.77179 3.14124L2.72297 8.65295L2.71711 8.66663L2.7132 8.68225C2.68781 8.77795 2.68 8.87561 2.69367 8.97131C2.69172 9.00256 2.68976 9.03381 2.68976 9.06506V16.2115C2.69028 16.5263 2.81556 16.8281 3.03814 17.0507C3.26073 17.2733 3.56248 17.3985 3.87726 17.399H16.1273C16.7816 17.399 17.3148 16.8658 17.3167 16.2115V9.06506C17.3167 9.03967 17.3167 9.01428 17.3148 8.9928C17.3226 8.89709 17.3148 8.8053 17.2894 8.71741ZM11.512 7.87756L11.5062 8.1842C11.4905 9.06116 10.8851 9.651 10.0003 9.651C9.56867 9.651 9.19758 9.51233 8.93 9.24866C8.66242 8.98498 8.51593 8.6178 8.50812 8.1842L8.50226 7.87756H4.48273L6.03547 4.10217H13.8323L15.428 7.87756H11.512ZM4.18781 9.37756H7.26008C7.73468 10.4928 8.74445 11.151 10.0023 11.151C10.6605 11.151 11.2718 10.9674 11.7659 10.6198C12.1995 10.3151 12.5374 9.88928 12.7562 9.37756H15.8128V15.899H4.18781V9.37756Z" fill="#030723"/>
</svg>
