<svg width="20" height="20" viewBox="0 0 20 20" fill="none" xmlns="http://www.w3.org/2000/svg">
<g clip-path="url(#clip0_33_209)">
<path d="M0.769531 1.29041V18.7096H19.2311" stroke="#030723" stroke-miterlimit="10" stroke-linecap="round" stroke-linejoin="round"/>
<path d="M12.1016 11.8808L16.1785 7.80768V7.80383" stroke="#030723" stroke-miterlimit="10" stroke-linecap="round" stroke-linejoin="round"/>
<path d="M16.9942 8.14461C17.6314 8.14461 18.148 7.62801 18.148 6.99076C18.148 6.35351 17.6314 5.83691 16.9942 5.83691C16.3569 5.83691 15.8403 6.35351 15.8403 6.99076C15.8403 7.62801 16.3569 8.14461 16.9942 8.14461Z" stroke="#030723" stroke-miterlimit="10" stroke-linecap="round" stroke-linejoin="round"/>
<path d="M4.99597 10.1692L0.769043 14.3961M10.296 12.0884L6.79597 9.9538M6.96674 9.3538C6.96674 9.66918 6.83597 9.96149 6.62827 10.1692C6.52133 10.2765 6.39425 10.3616 6.25433 10.4197C6.11441 10.4778 5.96439 10.5077 5.81289 10.5077C5.66139 10.5077 5.51137 10.4778 5.37145 10.4197C5.23153 10.3616 5.10445 10.2765 4.9975 10.1692C4.88981 10.0625 4.80443 9.9355 4.74632 9.79551C4.68821 9.65552 4.65854 9.50537 4.65904 9.3538C4.65904 8.71534 5.17443 8.19995 5.81289 8.19995C6.4475 8.19995 6.96674 8.71534 6.96674 9.3538ZM12.4325 12.6884C12.4325 13.3269 11.9133 13.8423 11.2787 13.8423C11.0516 13.8428 10.8295 13.7763 10.6402 13.6511C10.4508 13.5258 10.3027 13.3475 10.2144 13.1383C10.126 12.9292 10.1014 12.6986 10.1437 12.4756C10.1859 12.2525 10.2931 12.0469 10.4517 11.8846C10.5587 11.774 10.6868 11.6861 10.8283 11.6259C10.9699 11.5657 11.1221 11.5345 11.2759 11.5341C11.4297 11.5338 11.5821 11.5643 11.7239 11.6238C11.8658 11.6833 11.9942 11.7707 12.1017 11.8807C12.3056 12.0884 12.4325 12.373 12.4325 12.6884Z" stroke="#030723" stroke-miterlimit="10" stroke-linecap="round" stroke-linejoin="round"/>
</g>
<defs>
<clipPath id="clip0_33_209">
<rect width="20" height="20" fill="white"/>
</clipPath>
</defs>
</svg>
