<svg width="18" height="19" viewBox="0 0 18 19" fill="none" xmlns="http://www.w3.org/2000/svg">
<path fill-rule="evenodd" clip-rule="evenodd" d="M5.6665 1.66665C5.6665 1.20641 5.29341 0.833313 4.83317 0.833313C4.37293 0.833313 3.99984 1.20641 3.99984 1.66665V2.49998H3.1665C2.50346 2.49998 1.86758 2.76337 1.39874 3.23221C0.929896 3.70105 0.666504 4.33694 0.666504 4.99998V15.8333C0.666504 16.4964 0.929896 17.1322 1.39874 17.6011C1.86758 18.0699 2.50346 18.3333 3.1665 18.3333H14.8332C15.4962 18.3333 16.1321 18.0699 16.6009 17.6011C17.0698 17.1322 17.3332 16.4964 17.3332 15.8333V4.99998C17.3332 4.33694 17.0698 3.70105 16.6009 3.23221C16.1321 2.76337 15.4962 2.49998 14.8332 2.49998H14.4165C13.9563 2.49998 13.5832 2.87308 13.5832 3.33331C13.5832 3.79355 13.9563 4.16665 14.4165 4.16665H14.8332C15.0542 4.16665 15.2661 4.25444 15.4224 4.41072C15.5787 4.567 15.6665 4.77897 15.6665 4.99998V7.49998H2.33317V4.99998C2.33317 4.77897 2.42097 4.567 2.57725 4.41072C2.73353 4.25444 2.94549 4.16665 3.1665 4.16665H3.99984V4.99998C3.99984 5.46022 4.37293 5.83331 4.83317 5.83331C5.29341 5.83331 5.6665 5.46022 5.6665 4.99998V1.66665ZM2.57725 16.4226C2.42097 16.2663 2.33317 16.0543 2.33317 15.8333V9.16665H15.6665V15.8333C15.6665 16.0543 15.5787 16.2663 15.4224 16.4226C15.2661 16.5788 15.0542 16.6666 14.8332 16.6666H3.1665C2.94549 16.6666 2.73353 16.5788 2.57725 16.4226Z" fill="#030723"/>
<path d="M12.3332 1.66665C12.3332 1.20641 11.9601 0.833313 11.4998 0.833313C11.0396 0.833313 10.6665 1.20641 10.6665 1.66665V2.49998H7.74984C7.2896 2.49998 6.9165 2.87308 6.9165 3.33331C6.9165 3.79355 7.2896 4.16665 7.74984 4.16665H10.6665V4.99998C10.6665 5.46022 11.0396 5.83331 11.4998 5.83331C11.9601 5.83331 12.3332 5.46022 12.3332 4.99998V1.66665Z" fill="#030723"/>
</svg>
