<svg width="20" height="20" viewBox="0 0 20 20" fill="none" xmlns="http://www.w3.org/2000/svg">
<path fill-rule="evenodd" clip-rule="evenodd" d="M12.9998 1.66669C12.6462 1.66669 12.3071 1.80716 12.057 2.05721C11.807 2.30726 11.6665 2.6464 11.6665 3.00002V6.66669H7.99984C7.64622 6.66669 7.30708 6.80716 7.05703 7.05721C6.80698 7.30726 6.6665 7.6464 6.6665 8.00002V12.5H2.99984C2.64622 12.5 2.30708 12.6405 2.05703 12.8905C1.80698 13.1406 1.6665 13.4797 1.6665 13.8334V17C1.6665 17.3536 1.80698 17.6928 2.05703 17.9428C2.30708 18.1929 2.64622 18.3333 2.99984 18.3333H16.9998C17.3535 18.3333 17.6926 18.1929 17.9426 17.9428C18.1927 17.6928 18.3332 17.3536 18.3332 17V3.00002C18.3332 2.6464 18.1927 2.30726 17.9426 2.05721C17.6926 1.80716 17.3535 1.66669 16.9998 1.66669H12.9998ZM8.33317 8.33335H11.6665V16.6667H8.33317V8.33335ZM16.6665 16.6667H13.3332V3.33335H16.6665V16.6667ZM6.6665 14.1667V16.6667H3.33317V14.1667H6.6665Z" fill="#030723"/>
</svg>
