<svg width="14" height="18" viewBox="0 0 14 18" fill="none" xmlns="http://www.w3.org/2000/svg">
<path d="M2.8335 0.666992C2.17045 0.666992 1.53457 0.930384 1.06573 1.39923C0.596888 1.86807 0.333496 2.50395 0.333496 3.16699V14.8337C0.333496 15.4967 0.596888 16.1326 1.06573 16.6014C1.53457 17.0703 2.17045 17.3337 2.8335 17.3337H11.1668C11.8299 17.3337 12.4658 17.0703 12.9346 16.6014C13.4034 16.1326 13.6668 15.4967 13.6668 14.8337V14.0003C13.6668 13.5401 13.2937 13.167 12.8335 13.167C12.3733 13.167 12.0002 13.5401 12.0002 14.0003V14.8337C12.0002 15.0547 11.9124 15.2666 11.7561 15.4229C11.5998 15.5792 11.3878 15.667 11.1668 15.667H2.8335C2.61248 15.667 2.40052 15.5792 2.24424 15.4229C2.08796 15.2666 2.00016 15.0547 2.00016 14.8337V3.16699C2.00016 2.94598 2.08796 2.73402 2.24424 2.57774C2.40052 2.42146 2.61248 2.33366 2.8335 2.33366H11.1668C11.3878 2.33366 11.5998 2.42146 11.7561 2.57774C11.9124 2.73402 12.0002 2.94598 12.0002 3.16699V4.00033C12.0002 4.46056 12.3733 4.83366 12.8335 4.83366C13.2937 4.83366 13.6668 4.46056 13.6668 4.00033V3.16699C13.6668 2.50395 13.4034 1.86807 12.9346 1.39923C12.4658 0.930384 11.8299 0.666992 11.1668 0.666992H2.8335Z" fill="#FF0A00"/>
<path d="M10.9228 5.91107C10.5973 5.58563 10.0697 5.58563 9.74424 5.91107C9.4188 6.23651 9.4188 6.76414 9.74424 7.08958L10.8217 8.16699H7.00016C6.53993 8.16699 6.16683 8.54009 6.16683 9.00033C6.16683 9.46056 6.53993 9.83366 7.00016 9.83366H10.8217L9.74424 10.9111C9.4188 11.2365 9.4188 11.7641 9.74424 12.0896C10.0697 12.415 10.5973 12.415 10.9228 12.0896L13.4228 9.58958C13.7482 9.26414 13.7482 8.73651 13.4228 8.41107L10.9228 5.91107Z" fill="#FF0A00"/>
</svg>
