<svg width="20" height="20" viewBox="0 0 20 20" fill="none" xmlns="http://www.w3.org/2000/svg">
<path fill-rule="evenodd" clip-rule="evenodd" d="M10.0002 6.66634C9.11611 6.66634 8.26826 7.01753 7.64314 7.64265C7.01802 8.26777 6.66683 9.11562 6.66683 9.99967C6.66683 10.8837 7.01802 11.7316 7.64314 12.3567C8.26826 12.9818 9.11611 13.333 10.0002 13.333C10.8842 13.333 11.7321 12.9818 12.3572 12.3567C12.9823 11.7316 13.3335 10.8837 13.3335 9.99967C13.3335 9.11562 12.9823 8.26777 12.3572 7.64265C11.7321 7.01753 10.8842 6.66634 10.0002 6.66634ZM8.82165 8.82116C9.13421 8.5086 9.55813 8.33301 10.0002 8.33301C10.4422 8.33301 10.8661 8.5086 11.1787 8.82116C11.4912 9.13372 11.6668 9.55765 11.6668 9.99967C11.6668 10.4417 11.4912 10.8656 11.1787 11.1782C10.8661 11.4907 10.4422 11.6663 10.0002 11.6663C9.55813 11.6663 9.13421 11.4907 8.82165 11.1782C8.50909 10.8656 8.3335 10.4417 8.3335 9.99967C8.3335 9.55765 8.50909 9.13372 8.82165 8.82116Z" fill="#030723"/>
<path fill-rule="evenodd" clip-rule="evenodd" d="M9.151 0.833008C8.77246 0.833008 8.44147 1.08814 8.34511 1.45421L7.92281 3.05855L6.58112 3.62414L5.55407 2.71041C5.22431 2.41703 4.723 2.43166 4.41091 2.74375L2.74424 4.41042C2.44232 4.71234 2.41745 5.19361 2.68663 5.52505L3.58674 6.6333L3.03478 7.99124L1.47737 8.35483C1.10026 8.44287 0.833496 8.77909 0.833496 9.16634V10.833C0.833496 11.2088 1.08499 11.5381 1.44751 11.637L3.05724 12.0761L3.62436 13.4214L2.71154 14.445C2.41753 14.7747 2.43188 15.2766 2.74424 15.5889L4.41091 17.2556C4.71323 17.5579 5.19531 17.5824 5.5267 17.3123L6.63457 16.4091L7.95912 16.954L8.35886 18.537C8.4523 18.9071 8.78517 19.1663 9.16683 19.1663H10.8335C11.215 19.1663 11.5478 18.9073 11.6414 18.5374L12.0421 16.9537L13.411 16.3868C13.5488 16.5022 13.7067 16.6379 13.864 16.7748C14.0202 16.9108 14.1654 17.039 14.2716 17.1333C14.3247 17.1804 14.3679 17.2189 14.3978 17.2456L14.443 17.2861C14.7726 17.5817 15.2764 17.5686 15.5894 17.2556L17.2561 15.5889C17.5628 15.2822 17.5829 14.7915 17.3024 14.4607L16.3947 13.3902L16.9564 12.0335L18.5431 11.6212C18.9104 11.5258 19.1668 11.1942 19.1668 10.8147V9.16634C19.1668 8.78524 18.9083 8.4527 18.539 8.35873L16.9621 7.95754L16.4018 6.60412L17.3033 5.53763C17.5829 5.20676 17.5624 4.71677 17.2561 4.41042L15.5894 2.74375C15.2818 2.43616 14.7894 2.4169 14.4587 2.69955L13.4001 3.6044L11.999 3.02834L11.5853 1.45448C11.489 1.08828 11.158 0.833008 10.7793 0.833008H9.151ZM15.5348 14.9532L14.9647 15.5233L14.9584 15.5179C14.6507 15.2499 14.2542 14.9108 14.0306 14.7509C13.7966 14.5836 13.4929 14.5489 13.2271 14.6589L11.0179 15.5739C10.7748 15.6746 10.5935 15.8843 10.529 16.1394L10.1848 17.4997H9.81589L9.4723 16.139C9.40766 15.883 9.22553 15.6728 8.98135 15.5723L6.80969 14.679C6.5269 14.5627 6.20313 14.6106 5.96612 14.8038L5.05711 15.5448L4.47926 14.9669L5.21878 14.1376C5.43287 13.8976 5.48967 13.5557 5.36472 13.2593L4.43556 11.0551C4.33614 10.8193 4.13388 10.6422 3.88698 10.5749L2.50016 10.1966V9.82753L3.83378 9.51619C4.09724 9.45468 4.31445 9.2691 4.41632 9.01847L5.31632 6.8043C5.43079 6.52269 5.38284 6.2011 5.19119 5.96514L4.45409 5.05759L5.03356 4.47812L5.86625 5.21894C6.10632 5.43252 6.44778 5.48905 6.74387 5.36423L8.94803 4.43507C9.18627 4.33464 9.3644 4.12932 9.43021 3.8793L9.79336 2.49967H10.1367L10.4925 3.8532C10.559 4.10585 10.74 4.31273 10.9816 4.41207L13.2374 5.33957C13.5266 5.45848 13.8581 5.40548 14.0958 5.2023L14.9558 4.46718L15.5357 5.04702L14.8012 5.91588C14.6 6.15399 14.5484 6.48452 14.6677 6.77258L15.5819 8.98091C15.6824 9.22378 15.8916 9.40497 16.1464 9.46978L17.5002 9.81421V10.1702L16.1356 10.5248C15.8826 10.5905 15.6752 10.7711 15.5752 11.0126L14.6602 13.2226C14.5408 13.5111 14.5926 13.8421 14.7946 14.0803L15.5348 14.9532Z" fill="#030723"/>
</svg>
