<svg width="16" height="16" viewBox="0 0 16 16" fill="none" xmlns="http://www.w3.org/2000/svg">
<path d="M15.2894 6.71777L15.2855 6.70215L13.0941 1.13379C12.9964 0.819336 12.7054 0.602539 12.3753 0.602539H3.4925C3.16047 0.602539 2.86554 0.823242 2.77179 1.1416L0.722965 6.65332L0.717106 6.66699L0.7132 6.68262C0.687809 6.77832 0.679997 6.87598 0.693669 6.97168C0.691715 7.00293 0.689762 7.03418 0.689762 7.06543V14.2119C0.690279 14.5267 0.815556 14.8284 1.03814 15.051C1.26073 15.2736 1.56248 15.3989 1.87726 15.3994H14.1273C14.7816 15.3994 15.3148 14.8662 15.3167 14.2119V7.06543C15.3167 7.04004 15.3167 7.01465 15.3148 6.99316C15.3226 6.89746 15.3148 6.80566 15.2894 6.71777ZM9.51203 5.87793L9.50617 6.18457C9.49054 7.06152 8.88507 7.65137 8.00031 7.65137C7.56867 7.65137 7.19758 7.51269 6.93 7.24902C6.66242 6.98535 6.51593 6.61816 6.50812 6.18457L6.50226 5.87793H2.48273L4.03547 2.10254H11.8323L13.428 5.87793H9.51203ZM2.18781 7.37793H5.26008C5.73468 8.49316 6.74445 9.15137 8.00226 9.15137C8.66046 9.15137 9.27179 8.96777 9.76593 8.62012C10.1995 8.31543 10.5374 7.88965 10.7562 7.37793H13.8128V13.8994H2.18781V7.37793Z" fill="#030723"/>
</svg>
