<svg width="20" height="20" viewBox="0 0 20 20" fill="none" xmlns="http://www.w3.org/2000/svg">
<g clip-path="url(#clip0_558_1402)">
<path d="M0.769531 1.29004V18.7093H19.2311" stroke="#030723" stroke-miterlimit="10" stroke-linecap="round" stroke-linejoin="round"/>
<path d="M12.1016 11.8806L16.1785 7.80756V7.80371" stroke="#030723" stroke-miterlimit="10" stroke-linecap="round" stroke-linejoin="round"/>
<path d="M16.9942 8.14461C17.6314 8.14461 18.148 7.62801 18.148 6.99076C18.148 6.35351 17.6314 5.83691 16.9942 5.83691C16.3569 5.83691 15.8403 6.35351 15.8403 6.99076C15.8403 7.62801 16.3569 8.14461 16.9942 8.14461Z" stroke="#030723" stroke-miterlimit="10" stroke-linecap="round" stroke-linejoin="round"/>
<path d="M4.99597 10.1694L0.769043 14.3963M10.296 12.0887L6.79597 9.95404M6.96674 9.35404C6.96674 9.66943 6.83597 9.96173 6.62827 10.1694C6.52133 10.2767 6.39425 10.3619 6.25433 10.42C6.11441 10.4781 5.96439 10.508 5.81289 10.508C5.66139 10.508 5.51137 10.4781 5.37145 10.42C5.23153 10.3619 5.10445 10.2767 4.9975 10.1694C4.88981 10.0628 4.80443 9.93574 4.74632 9.79575C4.68821 9.65576 4.65854 9.50561 4.65904 9.35404C4.65904 8.71558 5.17443 8.2002 5.81289 8.2002C6.4475 8.2002 6.96674 8.71558 6.96674 9.35404ZM12.4325 12.6887C12.4325 13.3271 11.9133 13.8425 11.2787 13.8425C11.0516 13.8431 10.8295 13.7765 10.6402 13.6513C10.4508 13.5261 10.3027 13.3477 10.2144 13.1386C10.126 12.9294 10.1014 12.6989 10.1437 12.4758C10.1859 12.2528 10.2931 12.0472 10.4517 11.8848C10.5587 11.7743 10.6868 11.6863 10.8283 11.6261C10.9699 11.5659 11.1221 11.5348 11.2759 11.5344C11.4297 11.534 11.5821 11.5645 11.7239 11.624C11.8658 11.6836 11.9942 11.7709 12.1017 11.881C12.3056 12.0887 12.4325 12.3733 12.4325 12.6887Z" stroke="#030723" stroke-miterlimit="10" stroke-linecap="round" stroke-linejoin="round"/>
</g>
<defs>
<clipPath id="clip0_558_1402">
<rect width="20" height="20" fill="white"/>
</clipPath>
</defs>
</svg>
