<svg width="28" height="28" viewBox="0 0 64 64" fill="none" xmlns="http://www.w3.org/2000/svg">
<path d="M24 29H18.6667V34.3333H24V29ZM34.6667 29H29.3333V34.3333H34.6667V29ZM45.3333 29H40V34.3333H45.3333V29ZM50.6667 10.3333H48V5H42.6667V10.3333H21.3333V5H16V10.3333H13.3333C10.3733 10.3333 8.02667 12.7333 8.02667 15.6667L8 53C8 55.9333 10.3733 58.3333 13.3333 58.3333H50.6667C53.6 58.3333 56 55.9333 56 53V15.6667C56 12.7333 53.6 10.3333 50.6667 10.3333ZM50.6667 53H13.3333V23.6667H50.6667V53Z" fill="#2F54EB"/>
</svg>
