<svg width="23" height="23" viewBox="0 0 64 64" fill="none" xmlns="http://www.w3.org/2000/svg">
<path d="M20.2131 10.8798L16.3998 7.0665C9.99975 11.9465 5.78642 19.4665 5.41309 27.9998H10.7464C11.1464 20.9332 14.7731 14.7465 20.2131 10.8798ZM53.2531 27.9998H58.5864C58.1864 19.4665 53.9731 11.9465 47.5998 7.0665L43.8131 10.8798C49.1998 14.7465 52.8531 20.9332 53.2531 27.9998ZM47.9998 29.3332C47.9998 21.1465 43.6264 14.2932 35.9998 12.4798V10.6665C35.9998 8.45317 34.2131 6.6665 31.9998 6.6665C29.7864 6.6665 27.9998 8.45317 27.9998 10.6665V12.4798C20.3464 14.2932 15.9998 21.1198 15.9998 29.3332V42.6665L10.6664 47.9998V50.6665H53.3331V47.9998L47.9998 42.6665V29.3332ZM31.9998 58.6665C32.3731 58.6665 32.7198 58.6398 33.0664 58.5598C34.7998 58.1865 36.2131 57.0132 36.9064 55.4132C37.1731 54.7732 37.3064 54.0798 37.3064 53.3332H26.6398C26.6664 56.2665 29.0398 58.6665 31.9998 58.6665Z" fill="white"/>
</svg>
