<svg width="23" height="23" viewBox="0 0 64 64" fill="none" xmlns="http://www.w3.org/2000/svg">
<path d="M31.9997 58.6665C29.0663 58.6665 26.6663 56.2665 26.6663 53.3332H37.333C37.333 56.2665 34.933 58.6665 31.9997 58.6665ZM31.9997 17.3332C25.3597 17.3332 21.333 22.7198 21.333 29.3332V29.5998L15.9997 34.9332V29.3332C15.9997 21.1465 20.3463 14.2932 27.9997 12.4798V10.6665C27.9997 8.45317 29.7863 6.6665 31.9997 6.6665C34.213 6.6665 35.9997 8.45317 35.9997 10.6665V12.4798C36.6397 12.6398 37.253 12.8798 37.8397 13.0932L33.4663 17.4665C32.9863 17.4132 32.5063 17.3332 31.9997 17.3332ZM49.573 8.93317L53.333 12.6932L45.8397 20.1865C47.2263 22.8532 47.9997 25.9732 47.9997 29.3332V42.6665L53.333 47.9998V50.6665H15.3597L10.7197 55.3065L6.95967 51.5465L49.573 8.93317ZM21.333 45.3332H42.6663V29.3332C42.6663 27.5198 42.3463 25.8132 41.7597 24.2665L21.333 44.6932V45.3332Z" fill="white"/>
</svg>
