<svg width="23" height="23" viewBox="0 0 54 56" fill="none" xmlns="http://www.w3.org/2000/svg">
<path d="M24 53.3333H5.33333C2.37333 53.3333 0 50.9333 0 48L0.0266666 10.6667C0.0266666 7.73333 2.37333 5.33333 5.33333 5.33333H8V0H13.3333V5.33333H34.6667V0H40V5.33333H42.6667C45.6 5.33333 48 7.73333 48 10.6667V26.6667H42.6667V21.3333H5.33333V48H24V53.3333ZM51.0133 39.9733L52.9067 38.08C53.9467 37.04 53.9467 35.36 52.9067 34.32L51.0133 32.4267C49.9733 31.3867 48.2933 31.3867 47.2533 32.4267L45.36 34.32L51.0133 39.9733ZM49.12 41.8667L34.9867 56H29.3333V50.3467L43.4667 36.2133L49.12 41.8667Z" fill="#2F54EB"/>
</svg>
