<svg width="32" height="32" viewBox="0 0 32 32" fill="none" xmlns="http://www.w3.org/2000/svg">
<path d="M11.7297 6.11258C13.6297 2.7042 14.5796 1 16 1C17.4203 1 18.3703 2.70418 20.2702 6.11256L20.7617 6.99435C21.3017 7.9629 21.5716 8.4472 21.9926 8.76673C22.4135 9.08626 22.9376 9.20486 23.9861 9.44209L24.9407 9.65806C28.6301 10.4929 30.475 10.9102 30.9139 12.3216C31.3528 13.7329 30.0952 15.2037 27.5798 18.1449L26.9291 18.9058C26.2144 19.7416 25.8569 20.1595 25.6961 20.6766C25.5355 21.1936 25.5895 21.7512 25.6975 22.8664L25.7959 23.8816C26.1761 27.8059 26.3663 29.7681 25.2173 30.6403C24.0682 31.5126 22.3409 30.7173 18.8864 29.1268L17.9927 28.7152C17.0111 28.2633 16.5203 28.0372 16 28.0372C15.4796 28.0372 14.9888 28.2633 14.0072 28.7152L13.1135 29.1268C9.65901 30.7173 7.93176 31.5126 6.78272 30.6403C5.63368 29.7681 5.82382 27.8059 6.2041 23.8816L6.30247 22.8664C6.41054 21.7512 6.46457 21.1936 6.30379 20.6766C6.14302 20.1595 5.78564 19.7416 5.07088 18.9058L4.42015 18.1449C1.90488 15.2037 0.647233 13.7329 1.08613 12.3216C1.52503 10.9102 3.36979 10.4929 7.0593 9.65806L8.01383 9.44209C9.06227 9.20486 9.58649 9.08626 10.0074 8.76673C10.4283 8.4472 10.6983 7.96292 11.2382 6.99435L11.7297 6.11258Z" fill="white" stroke="#B3B3B3" stroke-width="2"/>
</svg>
