<svg width="18" height="18" viewBox="0 0 18 18" fill="none" xmlns="http://www.w3.org/2000/svg">
<path fill-rule="evenodd" clip-rule="evenodd" d="M11.9998 0.666992C11.6462 0.666992 11.3071 0.807467 11.057 1.05752C10.807 1.30757 10.6665 1.6467 10.6665 2.00033V5.66699H6.99984C6.64622 5.66699 6.30708 5.80746 6.05703 6.05752C5.80698 6.30757 5.6665 6.64671 5.6665 7.00032V11.5003H1.99984C1.64622 11.5003 1.30708 11.6408 1.05703 11.8908C0.806979 12.1409 0.666504 12.48 0.666504 12.8337V16.0003C0.666504 16.3539 0.806979 16.6931 1.05703 16.9431C1.30708 17.1932 1.64622 17.3337 1.99984 17.3337H15.9998C16.3535 17.3337 16.6926 17.1932 16.9426 16.9431C17.1927 16.6931 17.3332 16.3539 17.3332 16.0003V2.00033C17.3332 1.6467 17.1927 1.30757 16.9426 1.05752C16.6926 0.807467 16.3535 0.666992 15.9998 0.666992H11.9998ZM7.33317 7.33366H10.6665V15.667H7.33317V7.33366ZM15.6665 15.667H12.3332V2.33366H15.6665V15.667ZM5.6665 13.167V15.667H2.33317V13.167H5.6665Z" fill="#030723"/>
</svg>
