<svg width="25" height="28" viewBox="0 0 64 64" fill="none" xmlns="http://www.w3.org/2000/svg">
<path d="M32 34C36.3467 34 40.1867 35.04 43.3067 36.4C46.1867 37.68 48 40.56 48 43.68V48H16V43.7067C16 40.56 17.8133 37.68 20.6933 36.4267C23.8133 35.04 27.6533 34 32 34ZM10.6667 34.6667C13.6 34.6667 16 32.2667 16 29.3333C16 26.4 13.6 24 10.6667 24C7.73333 24 5.33333 26.4 5.33333 29.3333C5.33333 32.2667 7.73333 34.6667 10.6667 34.6667ZM13.68 37.6C12.6933 37.44 11.7067 37.3333 10.6667 37.3333C8.02667 37.3333 5.52 37.8933 3.25333 38.88C1.28 39.7333 0 41.6533 0 43.8133V48H12V43.7067C12 41.4933 12.6133 39.4133 13.68 37.6ZM53.3333 34.6667C56.2667 34.6667 58.6667 32.2667 58.6667 29.3333C58.6667 26.4 56.2667 24 53.3333 24C50.4 24 48 26.4 48 29.3333C48 32.2667 50.4 34.6667 53.3333 34.6667ZM64 43.8133C64 41.6533 62.72 39.7333 60.7467 38.88C58.48 37.8933 55.9733 37.3333 53.3333 37.3333C52.2933 37.3333 51.3067 37.44 50.32 37.6C51.3867 39.4133 52 41.4933 52 43.7067V48H64V43.8133ZM32 16C36.4267 16 40 19.5733 40 24C40 28.4267 36.4267 32 32 32C27.5733 32 24 28.4267 24 24C24 19.5733 27.5733 16 32 16Z" fill="#2F54EB"/>
</svg>
